<svg xmlns="http://www.w3.org/2000/svg" xmlns:xlink="http://www.w3.org/1999/xlink" width="104px" height="99px">
<path fill-rule="evenodd"  fill="rgb(181, 25, 26)"
 d="M76.627,94.674 C67.756,94.674 59.393,90.334 54.260,83.060 C53.704,82.263 53.888,81.169 54.681,80.605 C55.479,80.047 56.570,80.236 57.127,81.028 C61.602,87.370 68.896,91.156 76.632,91.156 C89.799,91.156 100.511,80.408 100.511,67.197 C100.511,53.985 89.799,43.236 76.632,43.236 C76.154,43.236 75.685,43.254 75.216,43.281 C74.261,43.382 73.423,42.599 73.362,41.631 C73.301,40.664 74.041,39.828 75.006,39.771 C75.545,39.736 76.088,39.723 76.632,39.723 C91.732,39.723 104.013,52.045 104.013,67.197 C104.013,82.347 91.728,94.674 76.627,94.674 ZM64.925,57.416 C64.925,54.887 66.971,52.828 69.492,52.828 C72.012,52.828 74.063,54.887 74.063,57.416 C74.063,59.940 72.012,61.998 69.492,61.998 C66.976,61.998 64.925,59.944 64.925,57.416 ZM70.294,57.332 C70.294,56.844 69.882,56.448 69.382,56.448 C68.882,56.448 68.475,56.844 68.475,57.332 C68.475,58.304 70.294,58.304 70.294,57.332 ZM80.169,57.332 C80.169,54.807 82.220,52.749 84.736,52.749 C87.252,52.749 89.304,54.803 89.304,57.332 C89.304,59.856 87.252,61.914 84.736,61.914 C82.220,61.914 80.169,59.856 80.169,57.332 ZM85.534,57.248 C85.534,56.760 85.131,56.364 84.627,56.364 C84.123,56.364 83.715,56.760 83.715,57.248 C83.715,58.220 85.534,58.220 85.534,57.248 ZM84.732,74.932 L69.492,74.932 C68.523,74.932 67.739,74.145 67.739,73.173 C67.739,72.201 68.527,71.414 69.492,71.414 L84.732,71.414 C85.701,71.414 86.485,72.201 86.485,73.173 C86.485,74.145 85.701,74.932 84.732,74.932 ZM48.062,54.944 C32.958,54.944 20.677,42.617 20.677,27.466 C20.677,12.315 32.963,-0.012 48.062,-0.012 C63.162,-0.012 75.448,12.315 75.448,27.466 C75.448,42.617 63.162,54.944 48.062,54.944 ZM48.062,3.506 C34.895,3.506 24.179,14.254 24.179,27.466 C24.179,40.677 34.895,51.425 48.062,51.425 C61.229,51.425 71.942,40.677 71.942,27.466 C71.942,14.254 61.229,3.506 48.062,3.506 ZM63.539,36.530 C63.338,36.530 63.132,36.499 62.935,36.424 C62.277,36.183 61.734,35.773 61.194,35.360 C58.630,40.158 53.673,43.241 48.062,43.241 C42.505,43.241 37.574,40.198 34.992,35.461 C34.431,35.901 33.857,36.323 33.169,36.578 C32.971,36.649 32.765,36.684 32.564,36.684 C31.854,36.684 31.183,36.244 30.920,35.532 C30.587,34.621 31.052,33.610 31.959,33.275 C33.708,32.629 34.606,30.676 33.962,28.921 C33.629,28.011 34.093,26.999 35.005,26.661 C35.908,26.327 36.921,26.793 37.258,27.704 C37.793,29.155 37.793,30.703 37.337,32.154 C38.976,36.693 43.202,39.723 48.062,39.723 C52.945,39.723 57.184,36.675 58.806,32.106 C58.315,30.624 58.302,29.036 58.849,27.549 C59.183,26.639 60.195,26.182 61.102,26.507 C62.010,26.846 62.474,27.857 62.141,28.768 C61.826,29.616 61.865,30.540 62.242,31.358 C62.623,32.180 63.298,32.805 64.144,33.117 C65.052,33.456 65.516,34.467 65.183,35.378 C64.925,36.090 64.254,36.530 63.539,36.530 ZM55.667,24.396 C53.590,24.396 52.196,22.017 52.196,18.481 C52.196,14.945 53.590,12.570 55.667,12.570 C57.745,12.570 59.139,14.945 59.139,18.481 C59.139,22.017 57.745,24.396 55.667,24.396 ZM42.693,24.396 C40.616,24.396 39.222,22.017 39.222,18.481 C39.222,14.945 40.616,12.570 42.693,12.570 C44.771,12.570 46.165,14.945 46.165,18.481 C46.165,22.017 44.771,24.396 42.693,24.396 ZM37.341,56.413 C41.523,56.413 44.446,58.062 44.446,60.424 C44.446,62.781 41.523,64.434 37.341,64.434 C33.160,64.434 30.241,62.785 30.241,60.424 C30.241,58.062 33.160,56.413 37.341,56.413 ZM13.010,60.437 C13.010,58.066 15.930,56.413 20.111,56.413 C24.293,56.413 27.216,58.066 27.216,60.437 C27.216,62.807 24.293,64.461 20.111,64.461 C15.930,64.461 13.010,62.807 13.010,60.437 ZM41.641,81.120 C41.930,82.044 41.413,83.033 40.488,83.319 C39.559,83.609 38.582,83.090 38.297,82.163 C36.802,77.342 32.410,74.101 27.374,74.101 C22.316,74.101 17.920,77.360 16.438,82.206 C16.210,82.967 15.513,83.451 14.764,83.451 C14.597,83.451 14.422,83.425 14.251,83.372 C13.322,83.086 12.804,82.101 13.081,81.173 C15.018,74.840 20.760,70.583 27.370,70.583 C33.953,70.583 39.686,74.818 41.641,81.120 ZM25.801,45.792 C25.928,46.755 25.248,47.639 24.288,47.762 C12.445,49.306 3.508,59.518 3.508,71.524 C3.508,84.735 14.220,95.484 27.387,95.484 C40.554,95.484 51.267,84.735 51.267,71.524 C51.267,67.205 50.109,62.974 47.922,59.289 C47.427,58.453 47.699,57.376 48.532,56.879 C49.360,56.382 50.438,56.650 50.933,57.490 C53.441,61.721 54.769,66.572 54.769,71.524 C54.769,86.675 42.483,99.002 27.383,99.002 C12.283,99.002 -0.003,86.675 0.001,71.524 C0.001,57.754 10.245,46.038 23.837,44.275 C24.788,44.147 25.678,44.829 25.801,45.792 Z"/>
</svg>