<?xml version="1.0" standalone="no"?>
<!DOCTYPE svg PUBLIC "-//W3C//DTD SVG 20010904//EN"
 "http://www.w3.org/TR/2001/REC-SVG-20010904/DTD/svg10.dtd">
<svg version="1.0" xmlns="http://www.w3.org/2000/svg"
 width="512.000000pt" height="512.000000pt" viewBox="0 0 512.000000 512.000000"
 preserveAspectRatio="xMidYMid meet">
<metadata>
Created by potrace 1.14, written by Peter Selinger 2001-2017
</metadata>
<g transform="translate(0.000000,512.000000) scale(0.100000,-0.100000)"
fill="#000000" stroke="none">
<path d="M270 4328 c-97 -17 -180 -83 -226 -182 l-24 -51 3 -900 2 -900 24
-47 c31 -63 84 -114 151 -147 l55 -26 2306 0 2305 0 65 33 c73 38 125 96 151
169 16 44 17 125 17 933 l1 885 -24 50 c-41 90 -102 145 -191 175 -33 12 -428
14 -2307 15 -1246 0 -2285 -3 -2308 -7z"/>
<path d="M1147 1845 c-9 -7 -21 -36 -27 -65 -6 -33 -26 -77 -54 -120 -55 -82
-70 -136 -63 -218 6 -61 15 -81 88 -199 11 -18 23 -56 26 -85 4 -49 2 -58 -36
-118 -57 -89 -73 -127 -78 -185 -4 -40 -1 -54 14 -66 49 -43 90 -21 104 55 5
26 22 68 39 93 59 88 74 125 76 198 3 82 -11 128 -60 199 -71 104 -73 168 -6
266 66 98 90 200 53 231 -26 23 -57 28 -76 14z"/>
<path d="M1626 1845 c-9 -7 -20 -36 -26 -65 -6 -34 -26 -77 -55 -120 -54 -83
-70 -141 -61 -222 6 -58 16 -81 87 -195 11 -18 23 -56 26 -85 4 -49 2 -58 -36
-118 -57 -89 -73 -127 -78 -185 -4 -40 -1 -54 14 -66 49 -43 90 -21 104 55 5
29 27 78 54 119 55 87 69 133 62 214 -6 65 -19 96 -74 180 -25 37 -36 66 -40
105 -4 49 -1 58 37 118 56 89 72 127 77 185 4 42 1 53 -16 69 -26 23 -52 27
-75 11z"/>
<path d="M2108 1846 c-16 -12 -24 -33 -33 -86 -3 -19 -21 -57 -39 -85 -65 -96
-71 -114 -71 -205 0 -90 0 -89 86 -227 11 -18 23 -56 26 -85 4 -49 2 -58 -36
-118 -57 -89 -73 -127 -79 -182 -4 -40 -1 -50 21 -72 23 -22 29 -24 56 -15 32
11 36 18 46 86 4 23 19 60 35 81 56 78 74 123 76 197 3 83 -9 123 -66 210 -32
49 -43 77 -47 117 -4 49 -1 58 37 118 56 89 72 127 77 185 4 42 1 53 -16 69
-25 23 -52 27 -73 12z"/>
<path d="M2586 1845 c-9 -7 -20 -36 -26 -65 -6 -34 -26 -77 -55 -120 -53 -82
-70 -141 -61 -221 6 -65 16 -87 69 -167 36 -53 54 -122 43 -165 -3 -13 -24
-51 -46 -86 -73 -113 -89 -193 -46 -236 22 -22 28 -23 55 -14 31 11 34 16 46
90 3 20 18 55 34 77 57 78 75 123 77 197 3 82 -11 128 -61 200 -69 101 -70
169 -5 265 69 102 90 199 50 235 -25 22 -52 26 -74 10z"/>
<path d="M3068 1846 c-16 -12 -24 -32 -33 -86 -3 -19 -25 -64 -49 -100 -56
-85 -66 -116 -62 -203 3 -76 14 -106 72 -189 35 -51 50 -110 39 -157 -3 -17
-24 -58 -46 -91 -86 -133 -92 -252 -14 -252 38 -1 62 27 68 78 3 29 17 64 40
97 58 86 70 117 73 192 3 82 -10 127 -60 199 -44 64 -58 101 -55 146 3 39 30
99 65 146 51 67 69 177 34 209 -24 22 -51 26 -72 11z"/>
<path d="M3547 1845 c-9 -7 -21 -36 -27 -65 -5 -28 -23 -72 -40 -97 -67 -98
-75 -122 -75 -213 1 -91 8 -111 71 -202 35 -51 50 -110 39 -157 -3 -17 -25
-58 -47 -93 -72 -112 -87 -190 -44 -233 17 -17 30 -22 47 -18 33 9 46 30 53
84 4 28 18 63 35 87 57 78 75 123 77 197 3 82 -11 128 -61 200 -66 97 -70 173
-12 254 47 66 68 116 74 175 4 41 1 54 -14 67 -26 23 -57 28 -76 14z"/>
<path d="M4035 1848 c-11 -6 -22 -12 -24 -14 -2 -2 -7 -26 -12 -53 -5 -33 -23
-73 -52 -118 -55 -84 -67 -125 -63 -213 3 -69 6 -76 79 -194 18 -29 30 -64 34
-98 4 -49 2 -58 -36 -118 -57 -89 -73 -127 -79 -182 -4 -40 -1 -50 21 -72 23
-22 29 -24 56 -15 32 11 36 18 46 86 4 23 19 60 35 81 56 78 74 123 76 197 3
81 -11 127 -59 199 -52 76 -55 86 -53 147 2 46 9 65 37 105 48 68 70 117 76
174 4 43 2 52 -20 74 -29 29 -34 30 -62 14z"/>
</g>
</svg>
