<?xml version="1.0" standalone="no"?>
<!DOCTYPE svg PUBLIC "-//W3C//DTD SVG 20010904//EN"
 "http://www.w3.org/TR/2001/REC-SVG-20010904/DTD/svg10.dtd">
<svg version="1.0" xmlns="http://www.w3.org/2000/svg"
 width="500.000000pt" height="500.000000pt" viewBox="0 0 500.000000 500.000000"
 preserveAspectRatio="xMidYMid meet">
<metadata>
Created by potrace 1.14, written by Peter Selinger 2001-2017
</metadata>
<g transform="translate(0.000000,500.000000) scale(0.100000,-0.100000)"
fill="#000000" stroke="none">
<path d="M0 4166 l0 -834 63 -6 c34 -3 314 -12 622 -21 308 -8 617 -18 687
-21 l126 -6 52 108 c150 315 200 425 200 441 0 10 -22 51 -48 90 -26 40 -114
183 -197 318 -82 136 -172 282 -200 326 -27 43 -99 160 -160 259 l-110 180
-517 0 -518 0 0 -834z"/>
<path d="M1176 4988 c13 -23 218 -330 295 -443 212 -309 452 -670 456 -685 2
-8 -26 -60 -63 -114 -135 -200 -215 -354 -270 -521 -20 -60 -38 -101 -47 -103
-8 -2 -197 8 -419 23 -221 14 -547 34 -723 45 -176 11 -339 21 -362 24 l-43 4
0 -64 0 -63 118 -37 c64 -20 137 -42 162 -49 25 -7 133 -41 240 -75 107 -34
247 -77 310 -96 63 -20 185 -57 270 -84 85 -27 207 -65 270 -85 l115 -35 1
-163 c0 -154 2 -169 36 -297 20 -74 51 -173 68 -219 29 -79 30 -85 13 -95 -24
-15 -1062 -547 -1440 -739 l-163 -82 0 -47 c0 -27 4 -48 8 -48 11 0 176 37
397 89 94 22 305 71 470 110 165 38 426 99 580 135 154 37 287 68 296 70 12 2
30 -21 64 -83 61 -110 160 -256 269 -396 47 -60 84 -113 83 -116 -1 -4 -27
-35 -57 -70 -170 -195 -484 -555 -489 -559 -3 -3 -28 -31 -54 -62 l-49 -58
1741 0 1741 0 0 554 0 554 -24 6 c-33 8 -56 -2 -86 -35 -27 -31 -157 -86 -226
-95 -46 -7 -97 14 -114 46 -6 11 -15 63 -20 117 -11 112 -24 166 -45 183 -12
10 -14 -10 -12 -142 2 -182 0 -187 -101 -252 -211 -136 -377 -213 -602 -281
-161 -48 -164 -50 -324 -204 -83 -79 -164 -153 -181 -163 -36 -22 -74 -23
-122 -3 -49 21 -50 20 -65 -27 -12 -34 -20 -44 -41 -46 -43 -5 -79 21 -188
140 -57 62 -109 118 -115 125 -6 6 -30 47 -52 91 -31 59 -48 81 -67 86 -34 9
-91 87 -105 147 -9 36 -10 84 -4 167 10 148 8 181 -17 212 -51 65 -79 116 -79
144 0 31 33 96 48 96 4 0 25 22 46 50 37 48 40 50 88 50 48 0 50 1 43 22 -4
13 -10 91 -14 173 -6 145 -8 152 -36 194 -18 27 -51 56 -84 74 -50 28 -56 29
-90 17 -146 -51 -238 -190 -249 -377 -4 -70 -2 -86 18 -120 25 -46 25 -106 -2
-111 -13 -2 -20 16 -38 93 -31 136 -28 258 10 450 65 323 128 514 263 796 l42
88 60 -25 c71 -30 99 -28 235 9 163 45 381 78 550 84 133 4 170 2 259 -16 128
-27 273 -72 369 -116 63 -29 72 -37 72 -60 0 -43 -45 -55 -209 -54 -151 0
-200 -9 -344 -62 -133 -50 -255 -89 -277 -89 -29 0 -25 28 10 83 17 26 30 50
30 52 0 8 -103 -35 -172 -73 -56 -30 -74 -46 -103 -93 -56 -91 -77 -167 -59
-213 4 -9 37 -34 75 -56 38 -23 81 -57 96 -76 33 -44 117 -94 159 -94 38 0 60
20 131 123 71 100 136 168 194 199 36 19 59 23 129 23 52 -1 94 -6 109 -14 13
-7 61 -16 106 -19 64 -3 89 -1 117 12 52 25 112 79 145 131 28 44 29 45 83 45
36 0 84 -11 140 -31 145 -53 211 -69 286 -69 83 0 195 -26 287 -69 l67 -30 0
248 0 248 -87 40 c-58 27 -137 51 -233 73 -80 18 -149 36 -154 40 -16 15 3 54
54 114 62 72 65 107 11 143 -34 23 -38 23 -345 23 -326 0 -564 -10 -856 -36
-349 -31 -619 -102 -902 -236 l-126 -61 -298 -591 c-163 -325 -298 -593 -300
-595 -11 -13 -15 21 -21 161 -4 96 -1 203 6 280 l13 125 -42 68 c-38 63 -40
67 -18 61 13 -4 38 -9 56 -13 27 -5 32 -3 32 13 0 11 12 57 25 103 14 47 25
91 25 97 0 7 -24 27 -54 45 -52 31 -55 35 -76 106 -12 41 -20 76 -19 78 2 1
48 -17 103 -41 54 -24 101 -44 105 -44 3 0 23 32 44 72 l38 71 -38 56 c-21 31
-76 94 -122 140 l-85 84 44 38 43 37 46 -50 c54 -60 93 -115 127 -180 13 -27
28 -48 33 -48 4 0 21 19 37 42 16 22 41 54 56 71 16 16 28 33 28 39 0 5 -27
78 -61 161 -34 84 -72 180 -86 215 l-25 63 33 54 c18 30 36 52 40 47 4 -4 25
-47 47 -97 114 -262 148 -335 158 -335 6 0 21 12 35 26 13 14 55 49 92 76 62
46 68 54 63 78 -3 15 -43 132 -90 259 l-86 231 46 42 c26 24 50 44 54 46 5 2
32 -70 60 -160 28 -90 65 -206 81 -258 17 -52 32 -100 34 -106 2 -7 50 12 121
47 65 33 119 61 121 63 3 2 -21 127 -51 276 -31 150 -56 281 -56 291 0 23 108
59 120 40 4 -7 15 -76 24 -154 24 -195 54 -408 59 -413 2 -2 35 7 73 19 38 13
102 32 142 42 70 17 73 18 68 44 -19 94 -87 613 -82 618 4 4 36 9 71 11 63 4
65 3 65 -19 2 -75 37 -609 41 -613 2 -2 42 2 89 9 47 7 110 16 141 20 l56 6 6
82 c4 45 7 181 7 303 0 121 2 223 5 226 3 2 32 0 65 -5 l60 -10 -1 -51 c0 -28
-10 -158 -22 -289 -12 -131 -18 -241 -14 -244 9 -6 229 -4 235 1 2 2 26 102
53 222 27 121 52 227 55 236 6 19 18 15 61 -19 l23 -18 -45 -213 c-25 -116
-45 -216 -45 -220 0 -8 198 -57 228 -57 14 0 34 42 109 240 64 169 58 160 93
133 16 -13 29 -29 29 -37 1 -8 -24 -94 -54 -191 -30 -97 -55 -181 -55 -186 0
-7 152 -84 220 -112 4 -2 15 14 23 35 47 115 98 234 117 277 l22 48 33 -32 33
-32 -23 -62 c-12 -33 -41 -110 -64 -170 -22 -60 -41 -112 -41 -117 0 -5 15
-16 32 -25 18 -9 69 -41 114 -70 45 -30 84 -54 88 -54 3 0 29 48 56 106 l50
107 0 139 0 139 -54 72 c-73 96 -213 231 -312 300 -275 192 -603 280 -1044
281 -287 1 -483 -30 -743 -116 -253 -83 -565 -262 -747 -428 -91 -84 -87 -76
13 23 329 325 704 524 1137 604 118 21 454 24 575 4 205 -33 454 -111 619
-193 186 -94 315 -186 469 -337 l87 -86 0 46 c0 41 -5 51 -55 106 -30 34 -55
64 -55 67 0 3 25 56 55 117 l55 111 0 289 c0 274 -1 289 -18 289 -11 0 -62
-45 -118 -102 -54 -57 -172 -179 -262 -271 l-163 -169 -57 27 c-97 47 -224 92
-317 114 -95 22 -302 51 -370 51 -68 0 -62 -13 -125 293 l-11 57 -208 0 -208
0 -6 -37 c-3 -21 -13 -103 -22 -183 -9 -80 -20 -154 -24 -165 -6 -14 -31 -27
-87 -43 -206 -61 -451 -176 -602 -283 l-83 -59 -37 27 c-20 16 -43 33 -49 40
-7 6 -72 60 -144 120 -73 59 -151 124 -174 143 -23 19 -62 51 -86 71 -24 20
-82 69 -129 108 -47 39 -137 114 -201 166 l-117 95 -107 0 c-82 0 -105 -3 -99
-12z"/>
<path d="M1610 4976 c14 -13 102 -83 195 -155 94 -73 185 -144 204 -159 52
-41 293 -230 316 -247 10 -8 25 -15 33 -15 8 0 144 66 302 146 255 129 289
149 294 173 3 14 12 76 21 136 9 61 19 118 21 128 5 16 -33 17 -703 17 l-708
0 25 -24z"/>
<path d="M3703 4983 c3 -10 15 -52 26 -93 11 -41 24 -91 29 -110 9 -40 -32
-28 401 -115 l225 -45 80 77 c45 43 116 111 158 152 42 41 81 77 85 80 4 4 21
21 37 39 l30 32 -538 0 c-507 0 -537 -1 -533 -17z"/>
<path d="M4977 3345 c-16 -33 -15 -35 1 -44 16 -9 19 -5 21 35 1 24 0 44 -2
44 -2 0 -11 -16 -20 -35z"/>
<path d="M0 2059 l0 -910 77 42 c43 23 103 56 133 74 30 18 134 76 230 130 96
54 264 150 373 212 109 62 200 113 203 113 2 0 28 16 59 35 30 20 63 38 73 42
9 3 28 14 42 23 14 10 54 33 90 52 169 92 170 92 170 115 0 19 -72 412 -86
470 -3 12 -18 26 -32 32 -39 15 -659 242 -1011 370 -168 61 -308 111 -313 111
-4 0 -8 -410 -8 -911z"/>
<path d="M4935 2080 c-9 -14 10 -45 40 -64 l25 -16 0 45 c0 43 -1 45 -29 45
-17 0 -33 -4 -36 -10z"/>
<path d="M2923 1560 c-24 -10 -43 -23 -43 -28 0 -5 -17 -27 -38 -50 -33 -36
-45 -42 -79 -42 -47 0 -107 -35 -111 -66 -5 -31 45 -172 79 -225 17 -27 46
-60 64 -75 19 -15 53 -54 75 -87 34 -49 42 -70 47 -122 3 -35 0 -92 -7 -128
-13 -72 -1 -136 26 -138 8 -1 19 -3 24 -4 6 -1 14 -3 19 -4 5 0 13 -10 16 -21
4 -13 15 -20 32 -20 21 0 64 37 197 168 228 224 256 253 256 266 0 18 -22 36
-44 36 -17 0 -128 -55 -159 -80 -37 -29 -207 -184 -236 -215 -18 -20 -41 -35
-50 -33 -38 7 -19 155 27 210 15 17 47 44 72 60 25 15 63 52 85 80 23 29 63
66 90 83 l49 30 152 -3 c117 -2 154 1 163 11 23 29 -10 48 -100 59 -104 12
-192 4 -267 -24 -52 -19 -130 -62 -142 -78 -7 -8 -76 -50 -84 -50 -18 0 0 44
55 136 80 134 108 161 184 175 84 15 105 31 105 77 0 45 -33 102 -58 102 -26
0 -52 -31 -52 -62 0 -15 -3 -33 -6 -42 -12 -31 -24 -15 -24 32 0 26 -4 52 -8
59 -23 36 -240 45 -309 13z"/>
<path d="M1475 1130 c-126 -26 -510 -103 -852 -170 l-623 -124 0 -418 0 -418
678 1 677 0 90 116 c50 63 117 148 150 188 50 60 312 386 379 470 l19 24 -103
163 c-57 90 -110 175 -119 190 -11 20 -24 28 -41 27 -14 -1 -128 -23 -255 -49z"/>
</g>
</svg>
